<svg width="70" height="72" viewBox="0 0 70 72" fill="none" xmlns="http://www.w3.org/2000/svg">
<path d="M63.9286 38.2143C63.9286 55.1773 50.1773 68.9286 33.2143 68.9286C16.2513 68.9286 2.5 55.1773 2.5 38.2143C2.5 21.2513 16.2513 7.5 33.2143 7.5C50.1773 7.5 63.9286 21.2513 63.9286 38.2143Z" stroke="#2D3436" stroke-width="5"/>
<line x1="3.94652" y1="48.2322" x2="25.3751" y2="26.8037" stroke="#2D3436" stroke-width="5"/>
<circle cx="29.2857" cy="22.8572" r="4.64286" stroke="#2D3436" stroke-width="5"/>
<line x1="9.6608" y1="60.3751" x2="58.9465" y2="11.0894" stroke="#2D3436" stroke-width="5"/>
<circle cx="62.8571" cy="7.14286" r="4.64286" stroke="#2D3436" stroke-width="5"/>
<line x1="21.8037" y1="66.0894" x2="33.9465" y2="53.9465" stroke="#2D3436" stroke-width="5"/>
<circle cx="37.8571" cy="50" r="4.64286" stroke="#2D3436" stroke-width="5"/>
<path d="M55.7143 10.794L40.7143 25.7143L41.412 16.4254L55.7143 1.64284V10.794Z" fill="white"/>
<path d="M62.1429 20.2226L47.1429 35.1429L47.8571 25.7143L59.6429 13.9286L62.1429 20.2226Z" fill="white"/>
<path d="M9.64286 63.7701L16.0714 57.5L21.5 62.8571L15.7143 68.5714L9.64286 63.7701Z" fill="white"/>
<path d="M1.35716 54.2857L7.85714 47.8571L13.2857 53.2143L6.42857 60L1.35716 54.2857Z" fill="white"/>
</svg>
